<?xml version="1.0" encoding="UTF-8" standalone="no"?>
<!DOCTYPE svg PUBLIC "-//W3C//DTD SVG 1.1//EN" "http://www.w3.org/Graphics/SVG/1.1/DTD/svg11.dtd">
<svg width="100%" height="100%" viewBox="0 0 1184 2371" version="1.1" xmlns="http://www.w3.org/2000/svg" xmlns:xlink="http://www.w3.org/1999/xlink" xml:space="preserve" xmlns:serif="http://www.serif.com/" style="fill-rule:evenodd;clip-rule:evenodd;stroke-miterlimit:2;">
    <g transform="matrix(4.16667,0,0,4.16667,0,0)">
        <g transform="matrix(0.919812,0,0,0.965385,14.6619,9.95055)">
            <rect x="0" y="0.065" width="283.535" height="568.936" style="fill:rgb(237,28,36);fill-rule:nonzero;"/>
        </g>
        <g transform="matrix(0.992418,0,0,0.998444,1.09706,0.804856)">
            <rect x="0" y="0.065" width="283.535" height="568.936" style="fill:white;fill-rule:nonzero;"/>
        </g>
        <path d="M228.48,101.031C228.014,102.292 226.537,103.437 225.045,103.437L216.775,103.437C215.284,103.437 213.793,102.292 213.339,101.031L194.538,47.47C193.725,44.947 195.324,42.653 197.973,42.653L204.391,42.653C205.763,42.653 207.374,43.685 207.827,45.06L220.903,87.495L235.245,45.06C235.698,43.685 237.309,42.653 238.68,42.653L243.834,42.653C246.47,42.653 248.082,44.947 247.283,47.47L228.48,101.031Z" style="fill:rgb(237,28,36);fill-rule:nonzero;"/>
        <path d="M239.892,152.157C240.239,152.157 240.465,152.504 240.465,152.844L240.465,155.48C240.465,155.826 240.239,156.169 239.892,156.169L236.417,156.173L233.753,156.173C226.19,156.173 220.903,162.251 220.903,170.39L220.903,183.238L233.234,183.238C233.581,183.238 233.807,183.584 233.807,183.927L233.807,186.563C233.807,186.909 233.581,187.252 233.234,187.252L220.903,187.252L220.903,234.621L232.329,234.621C232.675,234.621 233.021,234.847 233.021,235.306L233.021,237.943C233.021,238.286 232.675,238.633 232.329,238.633L206.322,238.633C205.976,238.633 205.75,238.286 205.75,237.943L205.75,235.306C205.75,234.847 205.976,234.621 206.322,234.621L216.895,234.621L216.895,187.252L206.442,187.252C206.095,187.252 205.75,186.909 205.75,186.563L205.75,183.927C205.75,183.584 206.095,183.238 206.442,183.238L216.895,183.238L216.895,170.39C216.895,160.527 223.433,152.157 233.753,152.157L239.892,152.157Z" style="fill:rgb(237,28,36);fill-rule:nonzero;"/>
        <path d="M234.819,373.914L207.907,373.914C205.95,373.914 204.232,372.309 204.232,370.246L204.232,365.429C204.232,363.364 205.95,361.757 207.907,361.757L215.364,361.757L215.364,300.974L207.907,300.974C205.842,300.974 204.232,299.251 204.232,297.304L204.232,292.369C204.232,290.423 205.842,288.814 207.907,288.814L223.86,288.814C225.923,288.814 227.535,290.423 227.535,292.369L227.535,361.757L234.819,361.757C236.776,361.757 238.374,363.364 238.374,365.429L238.374,370.246C238.374,372.309 236.776,373.914 234.819,373.914Z" style="fill:rgb(237,28,36);fill-rule:nonzero;"/>
        <path d="M234.819,509.213L207.907,509.213C205.95,509.213 204.232,507.601 204.232,505.537L204.232,500.72C204.232,498.656 205.95,497.048 207.907,497.048L215.364,497.048L215.364,436.267L207.907,436.267C205.842,436.267 204.232,434.543 204.232,432.595L204.232,427.662C204.232,425.714 205.842,424.106 207.907,424.106L223.86,424.106C225.923,424.106 227.535,425.714 227.535,427.662L227.535,497.048L234.819,497.048C236.776,497.048 238.374,498.656 238.374,500.72L238.374,505.537C238.374,507.601 236.776,509.213 234.819,509.213Z" style="fill:rgb(237,28,36);fill-rule:nonzero;"/>
        <path d="M184.271,515.954L39.534,515.954M184.271,380.658L39.534,380.658M184.271,245.364L39.534,245.364M184.271,110.072L39.534,110.072" style="fill:none;stroke:rgb(237,28,36);stroke-width:3.56px;"/>
    </g>
</svg>
